<svg width="211" height="42" viewBox="0 0 211 42" fill="none" xmlns="http://www.w3.org/2000/svg">
<g filter="url(#filter0_dd_78_495)">
<path d="M9.52973 3.28845H25.2703C26.4234 3.28845 27.3748 3.62269 28.1243 4.29115C28.9027 4.95962 29.4793 5.81908 29.8541 6.86953C30.2577 7.91998 30.4595 9.0341 30.4595 10.2119C30.4595 11.517 30.2144 12.8062 29.7243 14.0794C29.2631 15.3209 28.5856 16.4509 27.6919 17.4695C26.827 18.4563 25.7748 19.2362 24.5351 19.8092C25.8036 20.2867 26.7838 21.1143 27.4757 22.2921C28.1964 23.4698 28.5568 24.8863 28.5568 26.5416C28.5568 28.2605 28.2396 29.7885 27.6054 31.1254C27 32.4623 26.1495 33.5764 25.0541 34.4677C23.9586 35.359 22.7333 36.0434 21.3784 36.5209C20.0234 36.9665 18.5964 37.1894 17.0973 37.1894H3L9.52973 3.28845ZM18.1784 31.6029C18.7261 31.6029 19.2739 31.4755 19.8216 31.2209C20.3694 30.9344 20.845 30.5365 21.2486 30.0272C21.6811 29.5179 22.027 28.9449 22.2865 28.3083C22.5459 27.6398 22.6757 26.9395 22.6757 26.2074C22.6757 25.5389 22.5748 24.95 22.373 24.4407C22.1712 23.8996 21.8829 23.4698 21.5081 23.1515C21.1333 22.8332 20.6865 22.674 20.1676 22.674H11.6919L10.0054 31.6029H18.1784ZM20.0378 17.4695C20.5568 17.4695 21.0613 17.3422 21.5514 17.0876C22.0703 16.8329 22.5315 16.4827 22.9351 16.0371C23.3387 15.5596 23.6559 15.0026 23.8865 14.3659C24.1459 13.6975 24.2757 12.9653 24.2757 12.1695C24.2757 11.1827 24.0595 10.4029 23.627 9.82989C23.2234 9.22509 22.6468 8.92269 21.8973 8.92269H14.373L12.7297 17.4695H20.0378ZM35.573 12.1695H41.3676L36.5676 37.1894H30.773L35.573 12.1695ZM37.4757 2.3335H43.2703L42.0595 8.68395H36.2649L37.4757 2.3335ZM52.1753 25.8731C54.6258 25.332 56.5141 24.4566 57.8402 23.247C59.1663 22.0374 59.8294 20.7482 59.8294 19.3794C59.8294 18.6155 59.642 18.0743 59.2672 17.756C58.8924 17.4059 58.4168 17.2308 57.8402 17.2308C56.8023 17.2308 55.7068 17.6764 54.5537 18.5677C53.4005 19.459 52.3483 20.6527 51.3969 22.1488C50.4744 23.6131 49.7681 25.2365 49.278 27.0191L50.3591 19.7614C51.1951 18.2017 52.1177 16.8329 53.1267 15.6551C54.1645 14.4455 55.2744 13.5065 56.4564 12.838C57.6672 12.1695 58.9501 11.8353 60.305 11.8353C61.8906 11.8353 63.0726 12.3287 63.851 13.3155C64.6294 14.2704 65.0186 15.5915 65.0186 17.2785C65.0186 19.3476 64.4564 21.2575 63.3321 23.0083C62.2366 24.759 60.6222 26.2233 58.4888 27.4011L62.7267 37.1894H56.5861L52.1753 25.8731ZM48.4131 2.3335H54.1645L47.4618 37.1894H41.7104L48.4131 2.3335ZM75.6892 37.6668C73.7865 37.6668 72.1288 37.2212 70.7162 36.3299C69.3324 35.4068 68.2658 34.1494 67.5162 32.5578C66.7955 30.9344 66.4351 29.1041 66.4351 27.0668C66.4351 24.9978 66.7955 23.0401 67.5162 21.1939C68.2369 19.3476 69.2459 17.7242 70.5432 16.3236C71.8405 14.8912 73.354 13.777 75.0838 12.9812C76.8135 12.1536 78.6874 11.7398 80.7054 11.7398C82.3486 11.7398 83.7757 12.0104 84.9865 12.5515C86.1973 13.0927 87.1342 13.8885 87.7973 14.9389C88.4604 15.9575 88.7919 17.2149 88.7919 18.711C88.7919 21.353 87.6964 23.3584 85.5054 24.7272C83.3432 26.096 80.0856 26.7803 75.7324 26.7803C74.8676 26.7803 73.9306 26.7644 72.9216 26.7326C71.9126 26.6689 70.8171 26.5734 69.6351 26.4461L70.3703 22.4353C71.4081 22.5308 72.3595 22.6104 73.2243 22.674C74.0892 22.7059 74.9396 22.7218 75.7757 22.7218C77.6495 22.7218 79.1198 22.5785 80.1865 22.2921C81.282 22.0056 82.0748 21.5918 82.5649 21.0506C83.0549 20.5095 83.3 19.8728 83.3 19.1407C83.3 18.5041 83.1559 17.9948 82.8676 17.6128C82.5793 17.199 82.1757 16.8966 81.6567 16.7056C81.1667 16.4827 80.5757 16.3713 79.8838 16.3713C78.7595 16.3713 77.7216 16.6737 76.7703 17.2785C75.8477 17.8515 75.0405 18.6473 74.3486 19.6659C73.6568 20.6845 73.1234 21.8464 72.7486 23.1515C72.3739 24.4566 72.1865 25.8413 72.1865 27.3056C72.1865 28.3879 72.345 29.3746 72.6622 30.2659C73.0081 31.1254 73.5126 31.7939 74.1757 32.2713C74.8387 32.7488 75.6892 32.9876 76.727 32.9876C77.8802 32.9876 78.9613 32.6851 79.9703 32.0803C81.0081 31.4755 81.8297 30.632 82.4351 29.5497L87.0189 31.1254C86.2694 32.3987 85.2892 33.5287 84.0784 34.5155C82.8676 35.5023 81.5414 36.2821 80.1 36.8551C78.6585 37.3963 77.1883 37.6668 75.6892 37.6668ZM99.9847 37.5713C97.8225 37.5713 95.7324 37.1894 93.7144 36.4254C91.6964 35.6296 89.9811 34.5473 88.5682 33.1785L92.2874 27.4966C92.4603 27.783 92.8063 28.165 93.3252 28.6425C93.8441 29.0882 94.5072 29.5497 95.3144 30.0272C96.1216 30.4728 97.0297 30.8548 98.0387 31.1731C99.0477 31.4915 100.114 31.6506 101.239 31.6506C102.392 31.6506 103.343 31.4915 104.093 31.1731C104.871 30.823 105.448 30.3455 105.823 29.7407C106.197 29.1041 106.385 28.3719 106.385 27.5443C106.385 26.6848 106.096 26.0005 105.52 25.4912C104.972 24.9818 104.208 24.5362 103.228 24.1542C102.248 23.7404 101.123 23.3107 99.8549 22.865C98.4135 22.3557 97.2027 21.7827 96.2225 21.1461C95.2423 20.5095 94.4928 19.7455 93.9739 18.8542C93.4838 17.9311 93.2387 16.8329 93.2387 15.5596C93.2387 13.586 93.5847 11.8194 94.2766 10.2596C94.9973 8.69986 95.9631 7.39476 97.1739 6.34431C98.4135 5.26202 99.8117 4.45031 101.368 3.90917C102.925 3.3362 104.554 3.04971 106.255 3.04971C107.61 3.04971 108.864 3.22479 110.017 3.57494C111.199 3.92509 112.266 4.38665 113.217 4.95962C114.197 5.5326 115.048 6.15332 115.768 6.82178L112.093 12.1695C112.006 11.9467 111.747 11.6443 111.314 11.2623C110.882 10.8803 110.334 10.5143 109.671 10.1641C109.008 9.81398 108.273 9.51157 107.466 9.25692C106.659 8.97043 105.823 8.82719 104.958 8.82719C103.833 8.82719 102.868 9.01818 102.06 9.40016C101.282 9.78215 100.705 10.3074 100.331 10.9758C99.9558 11.6443 99.7685 12.4401 99.7685 13.3632C99.7685 14.0635 99.9847 14.6524 100.417 15.1299C100.878 15.6074 101.527 16.0212 102.363 16.3713C103.199 16.6897 104.223 17.0557 105.433 17.4695C106.961 17.947 108.287 18.52 109.412 19.1885C110.565 19.8569 111.459 20.7005 112.093 21.7191C112.727 22.7059 113.044 23.9791 113.044 25.5389C113.044 27.6716 112.669 29.502 111.92 31.0299C111.199 32.5578 110.219 33.7993 108.979 34.7542C107.74 35.7092 106.341 36.4254 104.785 36.9029C103.257 37.3485 101.657 37.5713 99.9847 37.5713ZM125.014 37.6668C123.111 37.6668 121.453 37.2212 120.041 36.3299C118.657 35.4068 117.59 34.1494 116.841 32.5578C116.12 30.9344 115.759 29.1041 115.759 27.0668C115.759 24.9978 116.12 23.0401 116.841 21.1939C117.561 19.3476 118.57 17.7242 119.868 16.3236C121.165 14.8912 122.678 13.777 124.408 12.9812C126.138 12.1536 128.012 11.7398 130.03 11.7398C131.673 11.7398 133.1 12.0104 134.311 12.5515C135.522 13.0927 136.459 13.8885 137.122 14.9389C137.785 15.9575 138.116 17.2149 138.116 18.711C138.116 21.353 137.021 23.3584 134.83 24.7272C132.668 26.096 129.41 26.7803 125.057 26.7803C124.192 26.7803 123.255 26.7644 122.246 26.7326C121.237 26.6689 120.141 26.5734 118.959 26.4461L119.695 22.4353C120.732 22.5308 121.684 22.6104 122.549 22.674C123.414 22.7059 124.264 22.7218 125.1 22.7218C126.974 22.7218 128.444 22.5785 129.511 22.2921C130.606 22.0056 131.399 21.5918 131.889 21.0506C132.379 20.5095 132.624 19.8728 132.624 19.1407C132.624 18.5041 132.48 17.9948 132.192 17.6128C131.904 17.199 131.5 16.8966 130.981 16.7056C130.491 16.4827 129.9 16.3713 129.208 16.3713C128.084 16.3713 127.046 16.6737 126.095 17.2785C125.172 17.8515 124.365 18.6473 123.673 19.6659C122.981 20.6845 122.448 21.8464 122.073 23.1515C121.698 24.4566 121.511 25.8413 121.511 27.3056C121.511 28.3879 121.669 29.3746 121.986 30.2659C122.332 31.1254 122.837 31.7939 123.5 32.2713C124.163 32.7488 125.014 32.9876 126.051 32.9876C127.205 32.9876 128.286 32.6851 129.295 32.0803C130.332 31.4755 131.154 30.632 131.759 29.5497L136.343 31.1254C135.594 32.3987 134.614 33.5287 133.403 34.5155C132.192 35.5023 130.866 36.2821 129.424 36.8551C127.983 37.3963 126.513 37.6668 125.014 37.6668ZM143.513 12.1695H148.745L147.837 16.8011C148.586 15.7188 149.451 14.8116 150.432 14.0794C151.441 13.3155 152.522 12.7425 153.675 12.3605C154.857 11.9467 156.068 11.7398 157.307 11.7398C158.633 11.7398 159.657 11.9945 160.377 12.5038C161.098 13.0131 161.603 13.7134 161.891 14.6047C162.208 15.4641 162.367 16.435 162.367 17.5173C162.367 18.1857 162.323 18.8542 162.237 19.5227C162.15 20.1912 162.05 20.8755 161.934 21.5758L158.95 37.1894H153.156L155.837 23.1515C155.952 22.674 156.024 22.2284 156.053 21.8146C156.111 21.4008 156.14 21.0029 156.14 20.6209C156.14 19.5068 155.909 18.6951 155.448 18.1857C155.015 17.6446 154.424 17.374 153.675 17.374C152.983 17.374 152.233 17.5969 151.426 18.0425C150.619 18.4882 149.855 19.1089 149.134 19.9047C148.414 20.6686 147.808 21.5599 147.318 22.5785L144.507 37.1894H138.712L143.513 12.1695ZM172.097 37.6668C170.252 37.6668 168.508 37.3326 166.865 36.6641C165.25 35.9957 163.953 35.0407 162.973 33.7993L165.87 29.7885C166.966 30.8389 168.09 31.6506 169.243 32.2236C170.396 32.7647 171.564 33.0353 172.746 33.0353C173.553 33.0353 174.245 32.908 174.822 32.6533C175.398 32.3668 175.845 32.0008 176.162 31.5551C176.479 31.0776 176.638 30.5365 176.638 29.9317C176.638 29.1359 176.321 28.547 175.686 28.165C175.052 27.783 174.058 27.3692 172.703 26.9236C171.204 26.3824 169.964 25.8731 168.984 25.3957C168.032 24.8863 167.326 24.2975 166.865 23.629C166.404 22.9287 166.173 22.0533 166.173 21.0029C166.173 19.2203 166.62 17.6287 167.514 16.2281C168.436 14.8275 169.661 13.7293 171.189 12.9335C172.746 12.1059 174.476 11.6921 176.378 11.6921C178.022 11.6921 179.492 11.9785 180.789 12.5515C182.086 13.0927 183.24 13.9521 184.249 15.1299L181.178 18.9975C180.256 18.0425 179.362 17.3581 178.497 16.9443C177.661 16.4987 176.739 16.2758 175.73 16.2758C174.98 16.2758 174.303 16.4032 173.697 16.6578C173.121 16.8806 172.659 17.2308 172.314 17.7083C171.968 18.1857 171.795 18.7587 171.795 19.4272C171.795 20.1593 172.054 20.7005 172.573 21.0506C173.121 21.3689 174.058 21.7509 175.384 22.1966C176.998 22.7059 178.324 23.247 179.362 23.82C180.4 24.3611 181.178 25.0137 181.697 25.7776C182.216 26.5416 182.476 27.5125 182.476 28.6903C182.476 30.441 182.043 31.9848 181.178 33.3218C180.314 34.6587 179.103 35.7251 177.546 36.5209C175.989 37.2848 174.173 37.6668 172.097 37.6668ZM194.693 37.6668C192.79 37.6668 191.132 37.2212 189.72 36.3299C188.336 35.4068 187.269 34.1494 186.52 32.5578C185.799 30.9344 185.439 29.1041 185.439 27.0668C185.439 24.9978 185.799 23.0401 186.52 21.1939C187.241 19.3476 188.25 17.7242 189.547 16.3236C190.844 14.8912 192.358 13.777 194.087 12.9812C195.817 12.1536 197.691 11.7398 199.709 11.7398C201.352 11.7398 202.779 12.0104 203.99 12.5515C205.201 13.0927 206.138 13.8885 206.801 14.9389C207.464 15.9575 207.795 17.2149 207.795 18.711C207.795 21.353 206.7 23.3584 204.509 24.7272C202.347 26.096 199.089 26.7803 194.736 26.7803C193.871 26.7803 192.934 26.7644 191.925 26.7326C190.916 26.6689 189.821 26.5734 188.639 26.4461L189.374 22.4353C190.412 22.5308 191.363 22.6104 192.228 22.674C193.093 22.7059 193.943 22.7218 194.779 22.7218C196.653 22.7218 198.123 22.5785 199.19 22.2921C200.286 22.0056 201.078 21.5918 201.568 21.0506C202.059 20.5095 202.304 19.8728 202.304 19.1407C202.304 18.5041 202.159 17.9948 201.871 17.6128C201.583 17.199 201.179 16.8966 200.66 16.7056C200.17 16.4827 199.579 16.3713 198.887 16.3713C197.763 16.3713 196.725 16.6737 195.774 17.2785C194.851 17.8515 194.044 18.6473 193.352 19.6659C192.66 20.6845 192.127 21.8464 191.752 23.1515C191.377 24.4566 191.19 25.8413 191.19 27.3056C191.19 28.3879 191.349 29.3746 191.666 30.2659C192.012 31.1254 192.516 31.7939 193.179 32.2713C193.842 32.7488 194.693 32.9876 195.731 32.9876C196.884 32.9876 197.965 32.6851 198.974 32.0803C200.012 31.4755 200.833 30.632 201.439 29.5497L206.023 31.1254C205.273 32.3987 204.293 33.5287 203.082 34.5155C201.871 35.5023 200.545 36.2821 199.104 36.8551C197.662 37.3963 196.192 37.6668 194.693 37.6668Z" fill="#F7F7F7"/>
</g>
<defs>
<filter id="filter0_dd_78_495" x="0" y="0.333496" width="210.795" height="41.3335" filterUnits="userSpaceOnUse" color-interpolation-filters="sRGB">
<feFlood flood-opacity="0" result="BackgroundImageFix"/>
<feColorMatrix in="SourceAlpha" type="matrix" values="0 0 0 0 0 0 0 0 0 0 0 0 0 0 0 0 0 0 127 0" result="hardAlpha"/>
<feOffset dy="1"/>
<feGaussianBlur stdDeviation="1.5"/>
<feColorMatrix type="matrix" values="0 0 0 0 0 0 0 0 0 0 0 0 0 0 0 0 0 0 0.15 0"/>
<feBlend mode="normal" in2="BackgroundImageFix" result="effect1_dropShadow_78_495"/>
<feColorMatrix in="SourceAlpha" type="matrix" values="0 0 0 0 0 0 0 0 0 0 0 0 0 0 0 0 0 0 127 0" result="hardAlpha"/>
<feOffset dy="1"/>
<feGaussianBlur stdDeviation="1"/>
<feColorMatrix type="matrix" values="0 0 0 0 0 0 0 0 0 0 0 0 0 0 0 0 0 0 0.3 0"/>
<feBlend mode="normal" in2="effect1_dropShadow_78_495" result="effect2_dropShadow_78_495"/>
<feBlend mode="normal" in="SourceGraphic" in2="effect2_dropShadow_78_495" result="shape"/>
</filter>
</defs>
</svg>
